<mxfile modified="2021-04-22T05:58:56.246Z" host="app.diagrams.net" agent="5.0 (Macintosh; Intel Mac OS X 10_15_7) AppleWebKit/537.36 (KHTML, like Gecko) Chrome/89.0.4389.82 Safari/537.36" etag="yAZFPiItWIwMoBDnKZmg" version="14.6.5" type="github">
  <diagram id="l8hXMBHkgcEJcSW0mbfh" name="Page-1">
    <mxGraphModel dx="1186" dy="614" grid="1" gridSize="10" guides="1" tooltips="1" connect="1" arrows="1" fold="1" page="1" pageScale="1" pageWidth="1169" pageHeight="827" math="0" shadow="0">
      <root>
        <mxCell id="0" />
        <mxCell id="1" parent="0" />
        <mxCell id="d80fWzhSfccV7iIIMcN0-1" value="企業&#xa;受ける側" style="shape=image;verticalLabelPosition=bottom;verticalAlign=top;imageAspect=0;aspect=fixed;image=data:image/svg+xml,PHN2ZyB4bWxucz0iaHR0cDovL3d3dy53My5vcmcvMjAwMC9zdmciIHZlcnNpb249IjEiIHZpZXdCb3g9IjAgMCA0OCA0OCIgZW5hYmxlLWJhY2tncm91bmQ9Im5ldyAwIDAgNDggNDgiPiYjeGE7ICAgIDxyZWN0IHg9IjEzIiB5PSIzMCIgZmlsbD0iI0JGMzYwQyIgd2lkdGg9IjIyIiBoZWlnaHQ9IjEyIi8+JiN4YTsgICAgPGcgZmlsbD0iI0ZGQTcyNiI+JiN4YTsgICAgICAgIDxjaXJjbGUgY3g9IjEwIiBjeT0iMjYiIHI9IjQiLz4mI3hhOyAgICAgICAgPGNpcmNsZSBjeD0iMzgiIGN5PSIyNiIgcj0iNCIvPiYjeGE7ICAgIDwvZz4mI3hhOyAgICA8cGF0aCBmaWxsPSIjRkZCNzREIiBkPSJNMzksMTljMC0xMi43LTMwLTguMy0zMCwwYzAsMS44LDAsOC4yLDAsMTBjMCw4LjMsNi43LDE1LDE1LDE1czE1LTYuNywxNS0xNUMzOSwyNy4yLDM5LDIwLjgsMzksMTl6Ii8+JiN4YTsgICAgPGcgZmlsbD0iIzc4NDcxOSI+JiN4YTsgICAgICAgIDxjaXJjbGUgY3g9IjMwIiBjeT0iMjYiIHI9IjIiLz4mI3hhOyAgICAgICAgPGNpcmNsZSBjeD0iMTgiIGN5PSIyNiIgcj0iMiIvPiYjeGE7ICAgIDwvZz4mI3hhOyAgICA8cGF0aCBmaWxsPSIjRkY1NzIyIiBkPSJNMjQsMkMxNS41LDIsMyw3LjgsMywzNS42TDEzLDQyVjI0bDE2LjgtOS44TDM1LDIxdjIxbDEwLTguMmMwLTUuNi0wLjktMjktMTUuNC0yOUwyOC4yLDJIMjR6Ii8+JiN4YTsgICAgPHBhdGggZmlsbD0iIzc1NzU3NSIgZD0iTTQ1LDI0Yy0wLjYsMC0xLDAuNC0xLDF2LTdjMC04LjgtNy4yLTE2LTE2LTE2aC05Yy0wLjYsMC0xLDAuNC0xLDFzMC40LDEsMSwxaDljNy43LDAsMTQsNi4zLDE0LDE0djEwIGMwLDAuNiwwLjQsMSwxLDFzMS0wLjQsMS0xdjJjMCwzLjktMy4xLDctNyw3SDI0Yy0wLjYsMC0xLDAuNC0xLDFzMC40LDEsMSwxaDEzYzUsMCw5LTQsOS05di01QzQ2LDI0LjQsNDUuNiwyNCw0NSwyNHoiLz4mI3hhOyAgICA8ZyBmaWxsPSIjMzc0NzRGIj4mI3hhOyAgICAgICAgPHBhdGggZD0iTTQ1LDIyaC0xYy0xLjEsMC0yLDAuOS0yLDJ2NGMwLDEuMSwwLjksMiwyLDJoMWMxLjEsMCwyLTAuOSwyLTJ2LTRDNDcsMjIuOSw0Ni4xLDIyLDQ1LDIyeiIvPiYjeGE7ICAgICAgICA8Y2lyY2xlIGN4PSIyNCIgY3k9IjM4IiByPSIyIi8+JiN4YTsgICAgPC9nPiYjeGE7PC9zdmc+;labelBackgroundColor=#ffffff;fontStyle=1" vertex="1" parent="1">
          <mxGeometry x="640" y="256" width="48" height="48" as="geometry" />
        </mxCell>
        <mxCell id="d80fWzhSfccV7iIIMcN0-2" value="インターネット" style="shape=image;verticalLabelPosition=bottom;verticalAlign=bottom;imageAspect=0;aspect=fixed;image=data:image/svg+xml,PHN2ZyB4bWxucz0iaHR0cDovL3d3dy53My5vcmcvMjAwMC9zdmciIHZlcnNpb249IjEiIHZpZXdCb3g9IjAgMCA0OCA0OCIgZW5hYmxlLWJhY2tncm91bmQ9Im5ldyAwIDAgNDggNDgiPiYjeGE7ICAgIDxwYXRoIGZpbGw9IiM3Q0IzNDIiIGQ9Ik0yNCw0QzEzLDQsNCwxMyw0LDI0czksMjAsMjAsMjBzMjAtOSwyMC0yMFMzNSw0LDI0LDR6Ii8+JiN4YTsgICAgPHBhdGggZmlsbD0iIzAyNzdCRCIgZD0iTTQ1LDI0YzAsMTEuNy05LjUsMjEtMjEsMjFTMywzNS43LDMsMjRTMTIuMywzLDI0LDNTNDUsMTIuMyw0NSwyNHogTTIzLjgsMzMuN2MwLTAuNC0wLjItMC42LTAuNi0wLjggYy0xLjMtMC40LTIuNS0wLjQtMy42LTEuNWMtMC4yLTAuNC0wLjItMC44LTAuNC0xLjNjLTAuNC0wLjQtMS41LTAuNi0yLjEtMC44Yy0wLjgsMC0xLjcsMC0yLjcsMGMtMC40LDAtMS4xLDAtMS41LDAgYy0wLjYtMC4yLTEuMS0xLjEtMS41LTEuN2MwLTAuMiwwLTAuNi0wLjQtMC42Yy0wLjQtMC4yLTAuOCwwLjItMS4zLDBjLTAuMi0wLjItMC4yLTAuNC0wLjItMC42YzAtMC42LDAuNC0xLjMsMC44LTEuNyBjMC42LTAuNCwxLjMsMC4yLDEuOSwwLjJjMC4yLDAsMC4yLDAsMC40LDAuMmMwLjYsMC4yLDAuOCwxLDAuOCwxLjdjMCwwLjIsMCwwLjQsMCwwLjRjMCwwLjIsMC4yLDAuMiwwLjQsMC4yIGMwLjItMS4xLDAuMi0yLjEsMC40LTMuMmMwLTEuMywxLjMtMi41LDIuMy0yLjljMC40LTAuMiwwLjYsMC4yLDEuMSwwYzEuMy0wLjQsNC40LTEuNywzLjgtMy40Yy0wLjQtMS41LTEuNy0yLjktMy40LTIuNyBjLTAuNCwwLjItMC42LDAuNC0xLDAuNmMtMC42LDAuNC0xLjksMS43LTIuNSwxLjdjLTEuMS0wLjItMS4xLTEuNy0wLjgtMi4zYzAuMi0wLjgsMi4xLTMuNiwzLjQtMy4xYzAuMiwwLjIsMC42LDAuNiwwLjgsMC44IGMwLjQsMC4yLDEuMSwwLjIsMS43LDAuMmMwLjIsMCwwLjQsMCwwLjYtMC4yYzAuMi0wLjIsMC4yLTAuMiwwLjItMC40YzAtMC42LTAuNi0xLjMtMS0xLjdjLTAuNC0wLjQtMS4xLTAuOC0xLjctMS4xIGMtMi4xLTAuNi01LjUsMC4yLTcuMSwxLjdzLTIuOSw0LTMuOCw2LjFjLTAuNCwxLjMtMC44LDIuOS0xLDQuNGMtMC4yLDEtMC40LDEuOSwwLjIsMi45YzAuNiwxLjMsMS45LDIuNSwzLjIsMy40IGMwLjgsMC42LDIuNSwwLjYsMy40LDEuN2MwLjYsMC44LDAuNCwxLjksMC40LDIuOWMwLDEuMywwLjgsMi4zLDEuMywzLjRjMC4yLDAuNiwwLjQsMS41LDAuNiwyLjFjMCwwLjIsMC4yLDEuNSwwLjIsMS43IGMxLjMsMC42LDIuMywxLjMsMy44LDEuN2MwLjIsMCwxLTEuMywxLTEuNWMwLjYtMC42LDEuMS0xLjUsMS43LTEuOWMwLjQtMC4yLDAuOC0wLjQsMS4zLTAuOGMwLjQtMC40LDAuNi0xLjMsMC44LTEuOSBDMjMuOCwzNS4xLDI0LDM0LjMsMjMuOCwzMy43eiBNMjQuMiwxNC4zYzAuMiwwLDAuNC0wLjIsMC44LTAuNGMwLjYtMC40LDEuMy0xLjEsMS45LTEuNWMwLjYtMC40LDEuMy0xLjEsMS43LTEuNSBjMC42LTAuNCwxLjEtMS4zLDEuMy0xLjljMC4yLTAuNCwwLjgtMS4zLDAuNi0xLjljLTAuMi0wLjQtMS4zLTAuNi0xLjctMC44Yy0xLjctMC40LTMuMS0wLjYtNC44LTAuNmMtMC42LDAtMS41LDAuMi0xLjcsMC44IGMtMC4yLDEuMSwwLjYsMC44LDEuNSwxLjFjMCwwLDAuMiwxLjcsMC4yLDEuOWMwLjIsMS0wLjQsMS43LTAuNCwyLjdjMCwwLjYsMCwxLjcsMC40LDIuMUwyNC4yLDE0LjN6IE00MS44LDI5IGMwLjItMC40LDAuMi0xLjEsMC40LTEuNWMwLjItMSwwLjItMi4xLDAuMi0zLjFjMC0yLjEtMC4yLTQuMi0wLjgtNi4xYy0wLjQtMC42LTAuNi0xLjMtMC44LTEuOWMtMC40LTEuMS0xLTIuMS0xLjktMi45IGMtMC44LTEuMS0xLjktNC0zLjgtMy4xYy0wLjYsMC4yLTEsMS0xLjUsMS41Yy0wLjQsMC42LTAuOCwxLjMtMS4zLDEuOWMtMC4yLDAuMi0wLjQsMC42LTAuMiwwLjhjMCwwLjIsMC4yLDAuMiwwLjQsMC4yIGMwLjQsMC4yLDAuNiwwLjIsMSwwLjRjMC4yLDAsMC40LDAuMiwwLjIsMC40YzAsMCwwLDAuMi0wLjIsMC4yYy0xLDEuMS0yLjEsMS45LTMuMSwyLjljLTAuMiwwLjItMC40LDAuNi0wLjQsMC44IGMwLDAuMiwwLjIsMC4yLDAuMiwwLjRjMCwwLjItMC4yLDAuMi0wLjQsMC40Yy0wLjQsMC4yLTAuOCwwLjQtMS4xLDAuNmMtMC4yLDAuNCwwLDEuMS0wLjIsMS41Yy0wLjIsMS4xLTAuOCwxLjktMS4zLDIuOSBjLTAuNCwwLjYtMC42LDEuMy0xLDEuOWMwLDAuOC0wLjIsMS41LDAuMiwyLjFjMSwxLjUsMi45LDAuNiw0LjQsMS4zYzAuNCwwLjIsMC44LDAuMiwxLjEsMC42YzAuNiwwLjYsMC42LDEuNywwLjgsMi4zIGMwLjIsMC44LDAuNCwxLjcsMC44LDIuNWMwLjIsMSwwLjYsMi4xLDAuOCwyLjljMS45LTEuNSwzLjYtMy4xLDQuOC01LjJDNDAuNiwzMi40LDQxLjIsMzAuNyw0MS44LDI5eiIvPiYjeGE7PC9zdmc+;labelBackgroundColor=#ffffff;" vertex="1" parent="1">
          <mxGeometry x="490" y="220" width="48" height="48" as="geometry" />
        </mxCell>
        <mxCell id="d80fWzhSfccV7iIIMcN0-3" style="edgeStyle=orthogonalEdgeStyle;shape=flexArrow;rounded=0;orthogonalLoop=1;jettySize=auto;html=1;exitX=1;exitY=0.5;exitDx=0;exitDy=0;entryX=0;entryY=0.5;entryDx=0;entryDy=0;labelBackgroundColor=#CCFFFF;fillColor=#CCFFFF;strokeColor=#CCCCCC;" edge="1" parent="1" source="d80fWzhSfccV7iIIMcN0-4" target="d80fWzhSfccV7iIIMcN0-1">
          <mxGeometry relative="1" as="geometry">
            <mxPoint x="730" y="280" as="targetPoint" />
          </mxGeometry>
        </mxCell>
        <mxCell id="d80fWzhSfccV7iIIMcN0-4" value="貴社のお客様&#xa;掛ける側" style="shape=image;verticalLabelPosition=bottom;verticalAlign=top;imageAspect=0;aspect=fixed;image=data:image/svg+xml,PHN2ZyB4bWxucz0iaHR0cDovL3d3dy53My5vcmcvMjAwMC9zdmciIHZlcnNpb249IjEiIHZpZXdCb3g9IjAgMCA0OCA0OCIgZW5hYmxlLWJhY2tncm91bmQ9Im5ldyAwIDAgNDggNDgiPiYjeGE7ICAgIDxwb2x5Z29uIGZpbGw9IiNGRjk4MDAiIHBvaW50cz0iMjQsMzcgMTksMzEgMTksMjUgMjksMjUgMjksMzEiLz4mI3hhOyAgICA8ZyBmaWxsPSIjRkZBNzI2Ij4mI3hhOyAgICAgICAgPGNpcmNsZSBjeD0iMzMiIGN5PSIxOSIgcj0iMiIvPiYjeGE7ICAgICAgICA8Y2lyY2xlIGN4PSIxNSIgY3k9IjE5IiByPSIyIi8+JiN4YTsgICAgPC9nPiYjeGE7ICAgIDxwYXRoIGZpbGw9IiNGRkI3NEQiIGQ9Ik0zMywxM2MwLTcuNi0xOC01LTE4LDBjMCwxLjEsMCw1LjksMCw3YzAsNSw0LDksOSw5czktNCw5LTlDMzMsMTguOSwzMywxNC4xLDMzLDEzeiIvPiYjeGE7ICAgIDxwYXRoIGZpbGw9IiM0MjQyNDIiIGQ9Ik0yNCw0Yy02LjEsMC0xMCw0LjktMTAsMTFjMCwwLjgsMCwyLjMsMCwyLjNsMiwxLjd2LTVsMTItNGw0LDR2NWwyLTEuN2MwLDAsMC0xLjUsMC0yLjNjMC00LTEtOC02LTlsLTEtMiBIMjR6Ii8+JiN4YTsgICAgPGcgZmlsbD0iIzc4NDcxOSI+JiN4YTsgICAgICAgIDxjaXJjbGUgY3g9IjI4IiBjeT0iMTkiIHI9IjEiLz4mI3hhOyAgICAgICAgPGNpcmNsZSBjeD0iMjAiIGN5PSIxOSIgcj0iMSIvPiYjeGE7ICAgIDwvZz4mI3hhOyAgICA8cG9seWdvbiBmaWxsPSIjZmZmIiBwb2ludHM9IjI0LDQzIDE5LDMxIDI0LDMyIDI5LDMxIi8+JiN4YTsgICAgPHBvbHlnb24gZmlsbD0iI0QzMkYyRiIgcG9pbnRzPSIyMywzNSAyMi4zLDM5LjUgMjQsNDMuNSAyNS43LDM5LjUgMjUsMzUgMjYsMzQgMjQsMzIgMjIsMzQiLz4mI3hhOyAgICA8cGF0aCBmaWxsPSIjNTQ2RTdBIiBkPSJNMjksMzFMMjksMzFsLTUsMTJsLTUtMTJjMCwwLTExLDItMTEsMTNoMzJDNDAsMzMsMjksMzEsMjksMzF6Ii8+JiN4YTs8L3N2Zz4=;labelBackgroundColor=#ffffff;fontStyle=1" vertex="1" parent="1">
          <mxGeometry x="320" y="250" width="60" height="60" as="geometry" />
        </mxCell>
        <mxCell id="d80fWzhSfccV7iIIMcN0-5" value="PC,スマホ" style="shape=image;verticalLabelPosition=bottom;verticalAlign=top;imageAspect=0;aspect=fixed;image=data:image/svg+xml,PHN2ZyB4bWxucz0iaHR0cDovL3d3dy53My5vcmcvMjAwMC9zdmciIHZlcnNpb249IjEiIHZpZXdCb3g9IjAgMCA0OCA0OCIgZW5hYmxlLWJhY2tncm91bmQ9Im5ldyAwIDAgNDggNDgiPiYjeGE7ICAgIDxwYXRoIGZpbGw9IiM1NDZFN0EiIGQ9Ik00LDI4VjhjMC0yLjIsMS44LTQsNC00aDI4YzIuMiwwLDQsMS44LDQsNHYyMGMwLDIuMi0xLjgsNC00LDRIOEM1LjgsMzIsNCwzMC4yLDQsMjh6Ii8+JiN4YTsgICAgPHBhdGggZmlsbD0iI0JCREVGQiIgZD0iTTM2LDdIOEM3LjQsNyw3LDcuNCw3LDh2MjBjMCwwLjYsMC40LDEsMSwxaDI4YzAuNiwwLDEtMC40LDEtMVY4QzM3LDcuNCwzNi42LDcsMzYsN3oiLz4mI3hhOyAgICA8cGF0aCBmaWxsPSIjMzc0NzRGIiBkPSJNMzgsMzNINmMtMi4yLDAtNC0xLjgtNC00djBoNDB2MEM0MiwzMS4yLDQwLjIsMzMsMzgsMzN6Ii8+JiN4YTsgICAgPHBhdGggZmlsbD0iI0UzODkzOSIgZD0iTTI0LDQwVjE2YzAtMi4yLDEuOC00LDQtNGgxMmMyLjIsMCw0LDEuOCw0LDR2MjRjMCwyLjItMS44LDQtNCw0SDI4QzI1LjgsNDQsMjQsNDIuMiwyNCw0MHoiLz4mI3hhOyAgICA8cGF0aCBmaWxsPSIjRkZGM0UwIiBkPSJNNDAsMTVIMjhjLTAuNiwwLTEsMC40LTEsMXYyMmMwLDAuNiwwLjQsMSwxLDFoMTJjMC42LDAsMS0wLjQsMS0xVjE2QzQxLDE1LjQsNDAuNiwxNSw0MCwxNXoiLz4mI3hhOyAgICA8Y2lyY2xlIGZpbGw9IiNBNjY0MkEiIGN4PSIzNCIgY3k9IjQxLjUiIHI9IjEuNSIvPiYjeGE7PC9zdmc+" vertex="1" parent="1">
          <mxGeometry x="370" y="180" width="48" height="48" as="geometry" />
        </mxCell>
      </root>
    </mxGraphModel>
  </diagram>
</mxfile>
